<svg class="rich-terminal" viewBox="0 0 860 391.59999999999997" xmlns="http://www.w3.org/2000/svg">
    <!-- Generated with Rich https://www.textualize.io -->
    <style>

    @font-face {
        font-family: "Fira Code";
        src: local("FiraCode-Regular"),
                url("https://cdnjs.cloudflare.com/ajax/libs/firacode/6.2.0/woff2/FiraCode-Regular.woff2") format("woff2"),
                url("https://cdnjs.cloudflare.com/ajax/libs/firacode/6.2.0/woff/FiraCode-Regular.woff") format("woff");
        font-style: normal;
        font-weight: 400;
    }
    @font-face {
        font-family: "Fira Code";
        src: local("FiraCode-Bold"),
                url("https://cdnjs.cloudflare.com/ajax/libs/firacode/6.2.0/woff2/FiraCode-Bold.woff2") format("woff2"),
                url("https://cdnjs.cloudflare.com/ajax/libs/firacode/6.2.0/woff/FiraCode-Bold.woff") format("woff");
        font-style: bold;
        font-weight: 700;
    }

    .terminal-1331749972-matrix {
        font-family: Fira Code, monospace;
        font-size: 20px;
        line-height: 24.4px;
        font-variant-east-asian: full-width;
    }

    .terminal-1331749972-title {
        font-size: 18px;
        font-weight: bold;
        font-family: arial;
    }

    .terminal-1331749972-r1 { fill: #c5c8c6 }
.terminal-1331749972-r2 { fill: #dddddd }
.terminal-1331749972-r3 { fill: #dde6ed;font-weight: bold }
.terminal-1331749972-r4 { fill: #004578;font-weight: bold }
.terminal-1331749972-r5 { fill: #211505;font-weight: bold }
.terminal-1331749972-r6 { fill: #e1e1e1 }
.terminal-1331749972-r7 { fill: #0f722f;font-style: italic; }
.terminal-1331749972-r8 { fill: #578fa4;font-weight: bold }
    </style>

    <defs>
    <clipPath id="terminal-1331749972-clip-terminal">
      <rect x="0" y="0" width="840.8" height="340.59999999999997" />
    </clipPath>
    <clipPath id="terminal-1331749972-line-0">
    <rect x="0" y="1.5" width="841.8" height="24.65"/>
            </clipPath>
<clipPath id="terminal-1331749972-line-1">
    <rect x="0" y="25.9" width="841.8" height="24.65"/>
            </clipPath>
<clipPath id="terminal-1331749972-line-2">
    <rect x="0" y="50.3" width="841.8" height="24.65"/>
            </clipPath>
<clipPath id="terminal-1331749972-line-3">
    <rect x="0" y="74.7" width="841.8" height="24.65"/>
            </clipPath>
<clipPath id="terminal-1331749972-line-4">
    <rect x="0" y="99.1" width="841.8" height="24.65"/>
            </clipPath>
<clipPath id="terminal-1331749972-line-5">
    <rect x="0" y="123.5" width="841.8" height="24.65"/>
            </clipPath>
<clipPath id="terminal-1331749972-line-6">
    <rect x="0" y="147.9" width="841.8" height="24.65"/>
            </clipPath>
<clipPath id="terminal-1331749972-line-7">
    <rect x="0" y="172.3" width="841.8" height="24.65"/>
            </clipPath>
<clipPath id="terminal-1331749972-line-8">
    <rect x="0" y="196.7" width="841.8" height="24.65"/>
            </clipPath>
<clipPath id="terminal-1331749972-line-9">
    <rect x="0" y="221.1" width="841.8" height="24.65"/>
            </clipPath>
<clipPath id="terminal-1331749972-line-10">
    <rect x="0" y="245.5" width="841.8" height="24.65"/>
            </clipPath>
<clipPath id="terminal-1331749972-line-11">
    <rect x="0" y="269.9" width="841.8" height="24.65"/>
            </clipPath>
<clipPath id="terminal-1331749972-line-12">
    <rect x="0" y="294.3" width="841.8" height="24.65"/>
            </clipPath>
    </defs>

    <rect fill="#292929" stroke="rgba(255,255,255,0.35)" stroke-width="1" x="1" y="1" width="858" height="389.6" rx="8"/><text class="terminal-1331749972-title" fill="#c5c8c6" text-anchor="middle" x="429" y="27">SinaraX</text>
            <g transform="translate(26,22)">
            <circle cx="0" cy="0" r="7" fill="#ff5f57"/>
            <circle cx="22" cy="0" r="7" fill="#febc2e"/>
            <circle cx="44" cy="0" r="7" fill="#28c840"/>
            </g>
        
    <g transform="translate(9, 41)" clip-path="url(#terminal-1331749972-clip-terminal)">
    <rect fill="#000000" x="0" y="1.5" width="12.2" height="24.65" shape-rendering="crispEdges"/><rect fill="#000000" x="12.2" y="1.5" width="12.2" height="24.65" shape-rendering="crispEdges"/><rect fill="#000000" x="24.4" y="1.5" width="707.6" height="24.65" shape-rendering="crispEdges"/><rect fill="#000000" x="732" y="1.5" width="12.2" height="24.65" shape-rendering="crispEdges"/><rect fill="#000000" x="744.2" y="1.5" width="97.6" height="24.65" shape-rendering="crispEdges"/><rect fill="#000000" x="0" y="25.9" width="12.2" height="24.65" shape-rendering="crispEdges"/><rect fill="#000000" x="12.2" y="25.9" width="829.6" height="24.65" shape-rendering="crispEdges"/><rect fill="#000000" x="0" y="50.3" width="12.2" height="24.65" shape-rendering="crispEdges"/><rect fill="#004578" x="12.2" y="50.3" width="48.8" height="24.65" shape-rendering="crispEdges"/><rect fill="#004578" x="61" y="50.3" width="12.2" height="24.65" shape-rendering="crispEdges"/><rect fill="#004578" x="73.2" y="50.3" width="73.2" height="24.65" shape-rendering="crispEdges"/><rect fill="#004578" x="146.4" y="50.3" width="12.2" height="24.65" shape-rendering="crispEdges"/><rect fill="#004578" x="158.6" y="50.3" width="48.8" height="24.65" shape-rendering="crispEdges"/><rect fill="#000000" x="207.4" y="50.3" width="12.2" height="24.65" shape-rendering="crispEdges"/><rect fill="#004578" x="219.6" y="50.3" width="48.8" height="24.65" shape-rendering="crispEdges"/><rect fill="#dde6ed" x="268.4" y="50.3" width="12.2" height="24.65" shape-rendering="crispEdges"/><rect fill="#dde6ed" x="280.6" y="50.3" width="73.2" height="24.65" shape-rendering="crispEdges"/><rect fill="#dde6ed" x="353.8" y="50.3" width="12.2" height="24.65" shape-rendering="crispEdges"/><rect fill="#004578" x="366" y="50.3" width="48.8" height="24.65" shape-rendering="crispEdges"/><rect fill="#000000" x="414.8" y="50.3" width="12.2" height="24.65" shape-rendering="crispEdges"/><rect fill="#fea62b" x="427" y="50.3" width="61" height="24.65" shape-rendering="crispEdges"/><rect fill="#fea62b" x="488" y="50.3" width="12.2" height="24.65" shape-rendering="crispEdges"/><rect fill="#fea62b" x="500.2" y="50.3" width="48.8" height="24.65" shape-rendering="crispEdges"/><rect fill="#fea62b" x="549" y="50.3" width="12.2" height="24.65" shape-rendering="crispEdges"/><rect fill="#fea62b" x="561.2" y="50.3" width="61" height="24.65" shape-rendering="crispEdges"/><rect fill="#000000" x="622.2" y="50.3" width="219.6" height="24.65" shape-rendering="crispEdges"/><rect fill="#000000" x="0" y="74.7" width="12.2" height="24.65" shape-rendering="crispEdges"/><rect fill="#000000" x="12.2" y="74.7" width="829.6" height="24.65" shape-rendering="crispEdges"/><rect fill="#000000" x="0" y="99.1" width="12.2" height="24.65" shape-rendering="crispEdges"/><rect fill="#004578" x="12.2" y="99.1" width="12.2" height="24.65" shape-rendering="crispEdges"/><rect fill="#004578" x="24.4" y="99.1" width="12.2" height="24.65" shape-rendering="crispEdges"/><rect fill="#004578" x="36.6" y="99.1" width="146.4" height="24.65" shape-rendering="crispEdges"/><rect fill="#004578" x="183" y="99.1" width="12.2" height="24.65" shape-rendering="crispEdges"/><rect fill="#004578" x="195.2" y="99.1" width="12.2" height="24.65" shape-rendering="crispEdges"/><rect fill="#000000" x="207.4" y="99.1" width="634.4" height="24.65" shape-rendering="crispEdges"/><rect fill="#000000" x="0" y="123.5" width="12.2" height="24.65" shape-rendering="crispEdges"/><rect fill="#000000" x="12.2" y="123.5" width="829.6" height="24.65" shape-rendering="crispEdges"/><rect fill="#000000" x="0" y="147.9" width="12.2" height="24.65" shape-rendering="crispEdges"/><rect fill="#000000" x="12.2" y="147.9" width="0" height="24.65" shape-rendering="crispEdges"/><rect fill="#000000" x="12.2" y="147.9" width="829.6" height="24.65" shape-rendering="crispEdges"/><rect fill="#000000" x="0" y="172.3" width="12.2" height="24.65" shape-rendering="crispEdges"/><rect fill="#1e1e1e" x="12.2" y="172.3" width="341.6" height="24.65" shape-rendering="crispEdges"/><rect fill="#1e1e1e" x="353.8" y="172.3" width="48.8" height="24.65" shape-rendering="crispEdges"/><rect fill="#1e1e1e" x="402.6" y="172.3" width="36.6" height="24.65" shape-rendering="crispEdges"/><rect fill="#1e1e1e" x="439.2" y="172.3" width="48.8" height="24.65" shape-rendering="crispEdges"/><rect fill="#1e1e1e" x="488" y="172.3" width="12.2" height="24.65" shape-rendering="crispEdges"/><rect fill="#1e1e1e" x="500.2" y="172.3" width="12.2" height="24.65" shape-rendering="crispEdges"/><rect fill="#1e1e1e" x="512.4" y="172.3" width="305" height="24.65" shape-rendering="crispEdges"/><rect fill="#14191f" x="817.4" y="172.3" width="24.4" height="24.65" shape-rendering="crispEdges"/><rect fill="#000000" x="0" y="196.7" width="12.2" height="24.65" shape-rendering="crispEdges"/><rect fill="#1e1e1e" x="12.2" y="196.7" width="451.4" height="24.65" shape-rendering="crispEdges"/><rect fill="#1e1e1e" x="463.6" y="196.7" width="353.8" height="24.65" shape-rendering="crispEdges"/><rect fill="#14191f" x="817.4" y="196.7" width="24.4" height="24.65" shape-rendering="crispEdges"/><rect fill="#000000" x="0" y="221.1" width="12.2" height="24.65" shape-rendering="crispEdges"/><rect fill="#1e1e1e" x="12.2" y="221.1" width="341.6" height="24.65" shape-rendering="crispEdges"/><rect fill="#1e1e1e" x="353.8" y="221.1" width="48.8" height="24.65" shape-rendering="crispEdges"/><rect fill="#1e1e1e" x="402.6" y="221.1" width="414.8" height="24.65" shape-rendering="crispEdges"/><rect fill="#14191f" x="817.4" y="221.1" width="24.4" height="24.65" shape-rendering="crispEdges"/><rect fill="#000000" x="0" y="245.5" width="12.2" height="24.65" shape-rendering="crispEdges"/><rect fill="#1e1e1e" x="12.2" y="245.5" width="341.6" height="24.65" shape-rendering="crispEdges"/><rect fill="#1e1e1e" x="353.8" y="245.5" width="48.8" height="24.65" shape-rendering="crispEdges"/><rect fill="#1e1e1e" x="402.6" y="245.5" width="414.8" height="24.65" shape-rendering="crispEdges"/><rect fill="#14191f" x="817.4" y="245.5" width="24.4" height="24.65" shape-rendering="crispEdges"/><rect fill="#000000" x="0" y="269.9" width="12.2" height="24.65" shape-rendering="crispEdges"/><rect fill="#1e1e1e" x="12.2" y="269.9" width="341.6" height="24.65" shape-rendering="crispEdges"/><rect fill="#1e1e1e" x="353.8" y="269.9" width="48.8" height="24.65" shape-rendering="crispEdges"/><rect fill="#1e1e1e" x="402.6" y="269.9" width="97.6" height="24.65" shape-rendering="crispEdges"/><rect fill="#1e1e1e" x="500.2" y="269.9" width="317.2" height="24.65" shape-rendering="crispEdges"/><rect fill="#14191f" x="817.4" y="269.9" width="24.4" height="24.65" shape-rendering="crispEdges"/><rect fill="#000000" x="0" y="294.3" width="12.2" height="24.65" shape-rendering="crispEdges"/><rect fill="#1e1e1e" x="12.2" y="294.3" width="805.2" height="24.65" shape-rendering="crispEdges"/><rect fill="#14191f" x="817.4" y="294.3" width="24.4" height="24.65" shape-rendering="crispEdges"/><rect fill="#000000" x="0" y="318.7" width="12.2" height="24.65" shape-rendering="crispEdges"/><rect fill="#14191f" x="12.2" y="318.7" width="12.2" height="24.65" shape-rendering="crispEdges"/><rect fill="#14191f" x="24.4" y="318.7" width="12.2" height="24.65" shape-rendering="crispEdges"/><rect fill="#14191f" x="36.6" y="318.7" width="12.2" height="24.65" shape-rendering="crispEdges"/><rect fill="#14191f" x="48.8" y="318.7" width="12.2" height="24.65" shape-rendering="crispEdges"/><rect fill="#14191f" x="61" y="318.7" width="12.2" height="24.65" shape-rendering="crispEdges"/><rect fill="#14191f" x="73.2" y="318.7" width="12.2" height="24.65" shape-rendering="crispEdges"/><rect fill="#14191f" x="85.4" y="318.7" width="12.2" height="24.65" shape-rendering="crispEdges"/><rect fill="#14191f" x="97.6" y="318.7" width="12.2" height="24.65" shape-rendering="crispEdges"/><rect fill="#14191f" x="109.8" y="318.7" width="12.2" height="24.65" shape-rendering="crispEdges"/><rect fill="#14191f" x="122" y="318.7" width="12.2" height="24.65" shape-rendering="crispEdges"/><rect fill="#14191f" x="134.2" y="318.7" width="12.2" height="24.65" shape-rendering="crispEdges"/><rect fill="#14191f" x="146.4" y="318.7" width="12.2" height="24.65" shape-rendering="crispEdges"/><rect fill="#14191f" x="158.6" y="318.7" width="12.2" height="24.65" shape-rendering="crispEdges"/><rect fill="#14191f" x="170.8" y="318.7" width="12.2" height="24.65" shape-rendering="crispEdges"/><rect fill="#14191f" x="183" y="318.7" width="12.2" height="24.65" shape-rendering="crispEdges"/><rect fill="#14191f" x="195.2" y="318.7" width="12.2" height="24.65" shape-rendering="crispEdges"/><rect fill="#14191f" x="207.4" y="318.7" width="12.2" height="24.65" shape-rendering="crispEdges"/><rect fill="#14191f" x="219.6" y="318.7" width="12.2" height="24.65" shape-rendering="crispEdges"/><rect fill="#14191f" x="231.8" y="318.7" width="12.2" height="24.65" shape-rendering="crispEdges"/><rect fill="#14191f" x="244" y="318.7" width="12.2" height="24.65" shape-rendering="crispEdges"/><rect fill="#14191f" x="256.2" y="318.7" width="12.2" height="24.65" shape-rendering="crispEdges"/><rect fill="#14191f" x="268.4" y="318.7" width="12.2" height="24.65" shape-rendering="crispEdges"/><rect fill="#14191f" x="280.6" y="318.7" width="12.2" height="24.65" shape-rendering="crispEdges"/><rect fill="#14191f" x="292.8" y="318.7" width="12.2" height="24.65" shape-rendering="crispEdges"/><rect fill="#14191f" x="305" y="318.7" width="12.2" height="24.65" shape-rendering="crispEdges"/><rect fill="#14191f" x="317.2" y="318.7" width="12.2" height="24.65" shape-rendering="crispEdges"/><rect fill="#14191f" x="329.4" y="318.7" width="12.2" height="24.65" shape-rendering="crispEdges"/><rect fill="#14191f" x="341.6" y="318.7" width="12.2" height="24.65" shape-rendering="crispEdges"/><rect fill="#14191f" x="353.8" y="318.7" width="12.2" height="24.65" shape-rendering="crispEdges"/><rect fill="#14191f" x="366" y="318.7" width="12.2" height="24.65" shape-rendering="crispEdges"/><rect fill="#14191f" x="378.2" y="318.7" width="12.2" height="24.65" shape-rendering="crispEdges"/><rect fill="#14191f" x="390.4" y="318.7" width="12.2" height="24.65" shape-rendering="crispEdges"/><rect fill="#14191f" x="402.6" y="318.7" width="12.2" height="24.65" shape-rendering="crispEdges"/><rect fill="#14191f" x="414.8" y="318.7" width="12.2" height="24.65" shape-rendering="crispEdges"/><rect fill="#14191f" x="427" y="318.7" width="12.2" height="24.65" shape-rendering="crispEdges"/><rect fill="#14191f" x="439.2" y="318.7" width="12.2" height="24.65" shape-rendering="crispEdges"/><rect fill="#14191f" x="451.4" y="318.7" width="12.2" height="24.65" shape-rendering="crispEdges"/><rect fill="#14191f" x="463.6" y="318.7" width="12.2" height="24.65" shape-rendering="crispEdges"/><rect fill="#14191f" x="475.8" y="318.7" width="12.2" height="24.65" shape-rendering="crispEdges"/><rect fill="#14191f" x="488" y="318.7" width="12.2" height="24.65" shape-rendering="crispEdges"/><rect fill="#14191f" x="500.2" y="318.7" width="12.2" height="24.65" shape-rendering="crispEdges"/><rect fill="#14191f" x="512.4" y="318.7" width="12.2" height="24.65" shape-rendering="crispEdges"/><rect fill="#14191f" x="524.6" y="318.7" width="12.2" height="24.65" shape-rendering="crispEdges"/><rect fill="#14191f" x="536.8" y="318.7" width="12.2" height="24.65" shape-rendering="crispEdges"/><rect fill="#14191f" x="549" y="318.7" width="12.2" height="24.65" shape-rendering="crispEdges"/><rect fill="#14191f" x="561.2" y="318.7" width="12.2" height="24.65" shape-rendering="crispEdges"/><rect fill="#14191f" x="573.4" y="318.7" width="12.2" height="24.65" shape-rendering="crispEdges"/><rect fill="#14191f" x="585.6" y="318.7" width="12.2" height="24.65" shape-rendering="crispEdges"/><rect fill="#14191f" x="597.8" y="318.7" width="12.2" height="24.65" shape-rendering="crispEdges"/><rect fill="#14191f" x="610" y="318.7" width="12.2" height="24.65" shape-rendering="crispEdges"/><rect fill="#14191f" x="622.2" y="318.7" width="12.2" height="24.65" shape-rendering="crispEdges"/><rect fill="#14191f" x="634.4" y="318.7" width="12.2" height="24.65" shape-rendering="crispEdges"/><rect fill="#14191f" x="646.6" y="318.7" width="12.2" height="24.65" shape-rendering="crispEdges"/><rect fill="#14191f" x="658.8" y="318.7" width="12.2" height="24.65" shape-rendering="crispEdges"/><rect fill="#14191f" x="671" y="318.7" width="12.2" height="24.65" shape-rendering="crispEdges"/><rect fill="#14191f" x="683.2" y="318.7" width="12.2" height="24.65" shape-rendering="crispEdges"/><rect fill="#14191f" x="695.4" y="318.7" width="12.2" height="24.65" shape-rendering="crispEdges"/><rect fill="#14191f" x="707.6" y="318.7" width="12.2" height="24.65" shape-rendering="crispEdges"/><rect fill="#14191f" x="719.8" y="318.7" width="12.2" height="24.65" shape-rendering="crispEdges"/><rect fill="#14191f" x="732" y="318.7" width="12.2" height="24.65" shape-rendering="crispEdges"/><rect fill="#14191f" x="744.2" y="318.7" width="12.2" height="24.65" shape-rendering="crispEdges"/><rect fill="#14191f" x="756.4" y="318.7" width="12.2" height="24.65" shape-rendering="crispEdges"/><rect fill="#14191f" x="768.6" y="318.7" width="12.2" height="24.65" shape-rendering="crispEdges"/><rect fill="#14191f" x="780.8" y="318.7" width="12.2" height="24.65" shape-rendering="crispEdges"/><rect fill="#14191f" x="793" y="318.7" width="12.2" height="24.65" shape-rendering="crispEdges"/><rect fill="#14191f" x="805.2" y="318.7" width="12.2" height="24.65" shape-rendering="crispEdges"/><rect fill="#14191f" x="817.4" y="318.7" width="24.4" height="24.65" shape-rendering="crispEdges"/>
    <g class="terminal-1331749972-matrix">
    <text class="terminal-1331749972-r2" x="24.4" y="20" textLength="707.6" clip-path="url(#terminal-1331749972-line-0)">SinaraX&#160;by&#160;MiXaiLL76;&#160;sinaraml==2024.3.1;&#160;sinaraX==__dev__</text><text class="terminal-1331749972-r1" x="841.8" y="20" textLength="12.2" clip-path="url(#terminal-1331749972-line-0)">
</text><text class="terminal-1331749972-r1" x="841.8" y="44.4" textLength="12.2" clip-path="url(#terminal-1331749972-line-1)">
</text><text class="terminal-1331749972-r3" x="73.2" y="68.8" textLength="73.2" clip-path="url(#terminal-1331749972-line-2)">SERVER</text><text class="terminal-1331749972-r4" x="280.6" y="68.8" textLength="73.2" clip-path="url(#terminal-1331749972-line-2)">UPDATE</text><text class="terminal-1331749972-r5" x="500.2" y="68.8" textLength="48.8" clip-path="url(#terminal-1331749972-line-2)">Exit</text><text class="terminal-1331749972-r1" x="841.8" y="68.8" textLength="12.2" clip-path="url(#terminal-1331749972-line-2)">
</text><text class="terminal-1331749972-r1" x="841.8" y="93.2" textLength="12.2" clip-path="url(#terminal-1331749972-line-3)">
</text><text class="terminal-1331749972-r3" x="36.6" y="117.6" textLength="146.4" clip-path="url(#terminal-1331749972-line-4)">Check&#160;system</text><text class="terminal-1331749972-r1" x="841.8" y="117.6" textLength="12.2" clip-path="url(#terminal-1331749972-line-4)">
</text><text class="terminal-1331749972-r1" x="841.8" y="142" textLength="12.2" clip-path="url(#terminal-1331749972-line-5)">
</text><text class="terminal-1331749972-r1" x="841.8" y="166.4" textLength="12.2" clip-path="url(#terminal-1331749972-line-6)">
</text><text class="terminal-1331749972-r6" x="12.2" y="190.8" textLength="341.6" clip-path="url(#terminal-1331749972-line-7)">Docker&#160;is&#160;running&#160;&#160;&#160;&#160;&#160;&#160;&#160;&#160;&#160;:&#160;</text><text class="terminal-1331749972-r7" x="353.8" y="190.8" textLength="48.8" clip-path="url(#terminal-1331749972-line-7)">True</text><text class="terminal-1331749972-r6" x="402.6" y="190.8" textLength="36.6" clip-path="url(#terminal-1331749972-line-7)">&#160;;&#160;</text><text class="terminal-1331749972-r8" x="439.2" y="190.8" textLength="48.8" clip-path="url(#terminal-1331749972-line-7)">24.0</text><text class="terminal-1331749972-r6" x="488" y="190.8" textLength="12.2" clip-path="url(#terminal-1331749972-line-7)">.</text><text class="terminal-1331749972-r8" x="500.2" y="190.8" textLength="12.2" clip-path="url(#terminal-1331749972-line-7)">6</text><text class="terminal-1331749972-r1" x="841.8" y="190.8" textLength="12.2" clip-path="url(#terminal-1331749972-line-7)">
</text><text class="terminal-1331749972-r1" x="12.2" y="215.2" textLength="451.4" clip-path="url(#terminal-1331749972-line-8)">System&#160;user&#160;&#160;&#160;&#160;&#160;&#160;&#160;&#160;&#160;&#160;&#160;&#160;&#160;&#160;&#160;:&#160;mixaill76</text><text class="terminal-1331749972-r1" x="841.8" y="215.2" textLength="12.2" clip-path="url(#terminal-1331749972-line-8)">
</text><text class="terminal-1331749972-r6" x="12.2" y="239.6" textLength="341.6" clip-path="url(#terminal-1331749972-line-9)">Docker&#160;group&#160;created&#160;&#160;&#160;&#160;&#160;&#160;:&#160;</text><text class="terminal-1331749972-r7" x="353.8" y="239.6" textLength="48.8" clip-path="url(#terminal-1331749972-line-9)">True</text><text class="terminal-1331749972-r1" x="841.8" y="239.6" textLength="12.2" clip-path="url(#terminal-1331749972-line-9)">
</text><text class="terminal-1331749972-r6" x="12.2" y="264" textLength="341.6" clip-path="url(#terminal-1331749972-line-10)">mixaill76&#160;in&#160;group&#160;docker&#160;:&#160;</text><text class="terminal-1331749972-r7" x="353.8" y="264" textLength="48.8" clip-path="url(#terminal-1331749972-line-10)">True</text><text class="terminal-1331749972-r1" x="841.8" y="264" textLength="12.2" clip-path="url(#terminal-1331749972-line-10)">
</text><text class="terminal-1331749972-r6" x="12.2" y="288.4" textLength="341.6" clip-path="url(#terminal-1331749972-line-11)">Platform&#160;&#160;&#160;&#160;&#160;&#160;&#160;&#160;&#160;&#160;&#160;&#160;&#160;&#160;&#160;&#160;&#160;&#160;:&#160;</text><text class="terminal-1331749972-r7" x="353.8" y="288.4" textLength="48.8" clip-path="url(#terminal-1331749972-line-11)">True</text><text class="terminal-1331749972-r6" x="402.6" y="288.4" textLength="97.6" clip-path="url(#terminal-1331749972-line-11)">&#160;;&#160;Linux</text><text class="terminal-1331749972-r1" x="841.8" y="288.4" textLength="12.2" clip-path="url(#terminal-1331749972-line-11)">
</text><text class="terminal-1331749972-r1" x="841.8" y="312.8" textLength="12.2" clip-path="url(#terminal-1331749972-line-12)">
</text>
    </g>
    </g>
</svg>
